<?xml version="1.0" encoding="UTF-8"?>
<svg width="251px" height="60px" viewBox="0 0 251 60" version="1.1" xmlns="http://www.w3.org/2000/svg" xmlns:xlink="http://www.w3.org/1999/xlink">
    <title>Logo/logo-web</title>
    <g id="Logo/logo-web" stroke="none" stroke-width="1" fill="none" fill-rule="evenodd">
        <g id="logo-web">
            <g id="Group" transform="translate(30.000000, 30.000000) rotate(24.000000) translate(-30.000000, -30.000000) ">
                <circle id="Oval-Copy-3" fill="#FB7185" style="mix-blend-mode: multiply;" cx="15" cy="30" r="15"></circle>
                <circle id="Oval-Copy-2" fill="#F43F5E" style="mix-blend-mode: multiply;" cx="30" cy="45" r="15"></circle>
                <circle id="Oval-Copy" fill="#E11D48" style="mix-blend-mode: multiply;" cx="45" cy="31" r="15"></circle>
                <circle id="Oval" fill="#BE123C" style="mix-blend-mode: multiply;" cx="30" cy="15" r="15"></circle>
            </g>
            <path d="M87.946932,47 L87.946932,19.8515152 L99,19.8515152 L99,13 L68,13 L68,19.8515152 L79.1044776,19.8515152 L79.1044776,47 L87.946932,47 Z M105.695009,48 C107.213185,48 108.67098,47.7576923 110.068392,47.2730769 C111.465804,46.7884615 112.604436,46.0442308 113.484288,45.0403846 C113.693777,44.8013736 113.878326,44.5486264 114.037937,44.2821429 L114.12766,44.1253846 L114.189083,44.3040291 C114.300714,44.612154 114.437715,44.9000665 114.600087,45.1677668 L114.700555,45.3259615 C115.287123,46.2086538 116.097967,46.8663462 117.133087,47.2990385 C118.168207,47.7317308 119.358595,47.9480769 120.704251,47.9480769 C122.187924,47.9480769 123.44732,47.7057692 124.48244,47.2211538 L124.48244,47.2211538 L125,42.1846154 C124.620456,42.3230769 124.120148,42.3923077 123.499076,42.3923077 C122.291436,42.3923077 121.687616,41.7173077 121.687616,40.3673077 L121.687616,40.3673077 L121.687616,30.8653846 C121.687616,28.7192308 121.213185,26.9105769 120.264325,25.4394231 C119.315465,23.9682692 117.952557,22.8605769 116.175601,22.1163462 C114.398644,21.3721154 112.25077,21 109.731978,21 C105.971041,21 103.055453,21.7442308 100.985213,23.2326923 C98.9149723,24.7211538 97.6383241,26.7115385 97.155268,29.2038462 L97.155268,29.2038462 L104.608133,30.9692308 C104.918669,29.5153846 105.479359,28.5028846 106.290203,27.9317308 C107.101047,27.3605769 108.075786,27.075 109.214418,27.075 C110.35305,27.075 111.25878,27.4298077 111.931608,28.1394231 C112.604436,28.8490385 112.94085,29.8096154 112.94085,31.0211538 L112.94085,31.0211538 L112.940722,31.7636538 L103.987061,33.6173077 C101.661235,34.0839744 99.9353253,34.8957028 98.8093304,36.0524929 L98.6820702,36.1875 C97.5606901,37.4163462 97,38.9653846 97,40.8346154 C97,42.3923077 97.3536661,43.6990385 98.0609982,44.7548077 C98.7683303,45.8105769 99.7775724,46.6153846 101.088725,47.1692308 C102.399877,47.7230769 103.935305,48 105.695009,48 Z M109.085714,43 C108.247619,43 107.52381,42.8050989 106.914286,42.4152968 C106.304762,42.0254946 106,41.4407914 106,40.6611871 C106,39.8461463 106.27619,39.2348656 106.828571,38.8273452 C107.380952,38.4198248 108.228571,38.1097549 109.371429,37.8971355 L109.371429,37.8971355 L113.999859,37 L114,38.4818388 C114,39.1834826 113.892,39.7990157 113.676,40.3284378 L113.6,40.5017226 C113.333333,41.0687075 112.971429,41.538242 112.514286,41.9103258 C112.057143,42.2824097 111.533333,42.557043 110.942857,42.7342258 C110.352381,42.9114086 109.733333,43 109.085714,43 Z M138.785863,48 C141.523216,48 143.792793,47.6105769 145.594595,46.8317308 C147.396396,46.0528846 148.747748,44.9884615 149.648649,43.6384615 C150.54955,42.2884615 151,40.7653846 151,39.0692308 C151,37.2692308 150.410949,35.7288462 149.232848,34.4480769 C148.054747,33.1673077 146.13167,32.2846154 143.463617,31.8 L143.463617,31.8 L138.733888,30.8653846 C137.555787,30.6230769 136.750173,30.3375 136.317048,30.0086538 C135.883922,29.6798077 135.66736,29.2903846 135.66736,28.8403846 C135.66736,28.425 135.80596,28.0788462 136.08316,27.8019231 C136.36036,27.525 136.784823,27.3086538 137.356549,27.1528846 C137.928274,26.9971154 138.629938,26.9192308 139.461538,26.9192308 C140.77824,26.9192308 142.094941,27.2134615 143.411642,27.8019231 C144.728344,28.3903846 145.802495,29.2038462 146.634096,30.2423077 L146.634096,30.2423077 L150.844075,25.4653846 C149.665974,24.0115385 148.072072,22.9038462 146.06237,22.1423077 C144.052668,21.3807692 141.731116,21 139.097713,21 C136.29106,21 133.986833,21.4067308 132.185031,22.2201923 C130.383229,23.0336538 129.049203,24.0894231 128.182952,25.3875 C127.316701,26.6855769 126.883576,28.0442308 126.883576,29.4634615 C126.883576,31.575 127.567914,33.2798077 128.93659,34.5778846 C130.305267,35.8759615 132.618157,36.8538462 135.87526,37.5115385 L135.87526,37.5115385 L139.513514,38.2384615 C140.553015,38.4461538 141.246015,38.6971154 141.592516,38.9913462 C141.939016,39.2855769 142.112266,39.675 142.112266,40.1596154 C142.112266,40.8173077 141.765766,41.3019231 141.072765,41.6134615 C140.379764,41.925 139.496188,42.0807692 138.422037,42.0807692 C136.654886,42.0807692 135.052322,41.7086538 133.614345,40.9644231 C132.176369,40.2201923 131.024255,39.2942308 130.158004,38.1865385 L130.158004,38.1865385 L126,43.0673077 C127.455301,44.6596154 129.300416,45.8798077 131.535343,46.7278846 C133.77027,47.5759615 136.18711,48 138.785863,48 Z M166.830508,48 C168.186441,48 169.508475,47.8256104 170.79661,47.4768311 C172.084746,47.1280518 173.152542,46.6397608 174,46.0119581 L174,46.0119581 L173.084746,40.5186846 C172.610169,40.9023418 172.076271,41.1900847 171.483051,41.3819133 C170.889831,41.5737419 170.186441,41.6696562 169.372881,41.6696562 C168.322034,41.6696562 167.5,41.3993523 166.90678,40.8587444 C166.313559,40.3181365 166.016949,39.4200299 166.016949,38.1644245 L166.016949,38.1644245 L166.016785,27.6487294 L173.59322,27.6487294 L173.59322,21.3183857 L166.016785,21.3183857 L166.016949,13 L157.372881,15.4588939 L157.372717,21.3183857 L153,21.3183857 L153,27.6487294 L157.372717,27.6487294 L157.372881,39.6292975 C157.405239,41.5602663 157.769628,43.1257736 158.466049,44.3258193 L158.567797,44.4947683 C159.330508,45.7154958 160.415254,46.6048829 161.822034,47.1629297 C163.228814,47.7209766 164.898305,48 166.830508,48 Z M189.294118,48 C191.129412,48 192.885294,47.7403846 194.561765,47.2211538 C196.238235,46.7019231 197.685294,45.9317308 198.902941,44.9105769 C200.120588,43.8894231 200.976471,42.6346154 201.470588,41.1461538 L201.470588,41.1461538 L194.270588,38.8096154 C193.882353,39.7442308 193.291176,40.4711538 192.497059,40.9903846 C191.702941,41.5096154 190.635294,41.7692308 189.294118,41.7692308 C188.094118,41.7692308 187.070588,41.5355769 186.223529,41.0682692 C185.376471,40.6009615 184.723529,39.8394231 184.264706,38.7836538 C184.021799,38.2247172 183.843192,37.5760381 183.728883,36.8376164 L183.713397,36.7332692 L201.788235,36.7326923 C201.85,36.3692308 201.898254,35.926262 201.932996,35.4037861 L201.947059,35.175 C201.982353,34.5519231 202,33.9288462 202,33.3057692 C202,30.9173077 201.488235,28.7971154 200.464706,26.9451923 C199.441176,25.0932692 197.95,23.6394231 195.991176,22.5836538 C194.032353,21.5278846 191.658824,21 188.870588,21 C186.152941,21 183.744118,21.5365385 181.644118,22.6096154 C179.544118,23.6826923 177.911765,25.2230769 176.747059,27.2307692 C175.582353,29.2384615 175,31.6615385 175,34.5 C175,37.3384615 175.582353,39.7615385 176.747059,41.7692308 C177.911765,43.7769231 179.561765,45.3173077 181.697059,46.3903846 C183.832353,47.4634615 186.364706,48 189.294118,48 Z M194,32 L184,32 L184.01421,31.9142389 C184.101368,31.4156714 184.214673,30.9572869 184.354126,30.5390855 L184.426031,30.3333333 C184.845841,29.1863799 185.46643,28.344086 186.287798,27.8064516 C187.109166,27.2688172 188.103933,27 189.272101,27 C190.914836,27 192.128635,27.5734767 192.913498,28.7204301 C193.469442,29.5328554 193.828489,30.597048 193.99064,31.9130078 L194,32 Z M215.898072,47 L215.898072,33.6588235 C215.898072,32.2823529 216.168503,31.1441176 216.709366,30.2441176 C217.25023,29.3441176 217.974288,28.6647059 218.881543,28.2058824 C219.788797,27.7470588 220.76584,27.5176471 221.812672,27.5176471 C222.580349,27.5176471 223.234619,27.5617647 223.775482,27.65 C224.316345,27.7382353 224.761249,27.8529412 225.110193,27.9941176 L225.110193,27.9941176 L226,20.5823529 C225.720845,20.4058824 225.34573,20.2647059 224.874656,20.1588235 C224.403581,20.0529412 223.836547,20 223.173554,20 C221.149679,20 219.483471,20.5470588 218.174931,21.6411765 C216.866391,22.7352941 215.880624,24.2705882 215.217631,26.2470588 L215.217631,26.2470588 L214.85124,20.5294118 L207,20.5294118 L207,47 L215.898072,47 Z M238.785863,48 C241.523216,48 243.792793,47.6105769 245.594595,46.8317308 C247.396396,46.0528846 248.747748,44.9884615 249.648649,43.6384615 C250.54955,42.2884615 251,40.7653846 251,39.0692308 C251,37.2692308 250.410949,35.7288462 249.232848,34.4480769 C248.054747,33.1673077 246.13167,32.2846154 243.463617,31.8 L243.463617,31.8 L238.733888,30.8653846 C237.555787,30.6230769 236.750173,30.3375 236.317048,30.0086538 C235.883922,29.6798077 235.66736,29.2903846 235.66736,28.8403846 C235.66736,28.425 235.80596,28.0788462 236.08316,27.8019231 C236.36036,27.525 236.784823,27.3086538 237.356549,27.1528846 C237.928274,26.9971154 238.629938,26.9192308 239.461538,26.9192308 C240.77824,26.9192308 242.094941,27.2134615 243.411642,27.8019231 C244.728344,28.3903846 245.802495,29.2038462 246.634096,30.2423077 L246.634096,30.2423077 L250.844075,25.4653846 C249.665974,24.0115385 248.072072,22.9038462 246.06237,22.1423077 C244.052668,21.3807692 241.731116,21 239.097713,21 C236.29106,21 233.986833,21.4067308 232.185031,22.2201923 C230.383229,23.0336538 229.049203,24.0894231 228.182952,25.3875 C227.316701,26.6855769 226.883576,28.0442308 226.883576,29.4634615 C226.883576,31.575 227.567914,33.2798077 228.93659,34.5778846 C230.305267,35.8759615 232.618157,36.8538462 235.87526,37.5115385 L235.87526,37.5115385 L239.513514,38.2384615 C240.553015,38.4461538 241.246015,38.6971154 241.592516,38.9913462 C241.939016,39.2855769 242.112266,39.675 242.112266,40.1596154 C242.112266,40.8173077 241.765766,41.3019231 241.072765,41.6134615 C240.379764,41.925 239.496188,42.0807692 238.422037,42.0807692 C236.654886,42.0807692 235.052322,41.7086538 233.614345,40.9644231 C232.176369,40.2201923 231.024255,39.2942308 230.158004,38.1865385 L230.158004,38.1865385 L226,43.0673077 C227.455301,44.6596154 229.300416,45.8798077 231.535343,46.7278846 C233.77027,47.5759615 236.18711,48 238.785863,48 Z" id="Tasters-Copy" fill="#1C1917" fill-rule="nonzero"></path>
        </g>
    </g>
</svg>