<?xml version="1.0" encoding="UTF-8"?>
<svg version="1.1" xmlns="http://www.w3.org/2000/svg" width="192" height="192">
<path d="M0 0 C3.58011524 2.13704885 6.31398639 4.94545792 9.21337891 7.91943359 C10.07315338 8.76168488 10.93292786 9.60393616 11.8187561 10.47171021 C14.15970091 12.77629682 16.47685428 15.10180389 18.78369951 17.44044447 C21.2083496 19.89051975 23.65742893 22.31598222 26.10263062 24.74551392 C30.20392655 28.82864721 34.28375754 32.93234133 38.35205078 37.04833984 C43.04730777 41.7980166 47.77751057 46.51058869 52.52747786 51.20550287 C56.61414562 55.24670145 60.68089082 59.30717495 64.7318033 63.384215 C67.14718707 65.81514133 69.56870475 68.23892098 72.00841141 70.64545822 C74.72408639 73.33570194 77.40558745 76.0559887 80.08056641 78.78662109 C81.29129822 79.96698944 81.29129822 79.96698944 82.52648926 81.17120361 C86.08818094 84.87123453 88.51715946 87.76838029 88.9899292 93 C88.41357359 99.37788991 84.48446261 102.91992627 80.08056641 107.21337891 C79.23831512 108.07315338 78.39606384 108.93292786 77.52828979 109.8187561 C75.22370318 112.15970091 72.89819611 114.47685428 70.55955553 116.78369951 C68.10948025 119.2083496 65.68401778 121.65742893 63.25448608 124.10263062 C59.17135279 128.20392655 55.06765867 132.28375754 50.95166016 136.35205078 C46.2019834 141.04730777 41.48941131 145.77751057 36.79449713 150.52747786 C32.75329855 154.61414562 28.69282505 158.68089082 24.615785 162.7318033 C22.18485867 165.14718707 19.76107902 167.56870475 17.35454178 170.00841141 C14.66429806 172.72408639 11.9440113 175.40558745 9.21337891 178.08056641 C8.03301056 179.29129822 8.03301056 179.29129822 6.82879639 180.52648926 C2.90229855 184.30618057 0.23349742 186.48422969 -5.34423828 186.65362549 C-10.78153282 186.36881718 -13.52653045 183.80934627 -17.1015625 179.9453125 C-17.70890228 179.32856659 -18.31624207 178.71182068 -18.94198608 178.0763855 C-20.86100757 176.11491395 -22.74188433 174.12090017 -24.625 172.125 C-25.926163 170.79079776 -27.22952995 169.45874111 -28.53515625 168.12890625 C-38 158.39272971 -38 158.39272971 -38 156 C-38.81691315 155.66615295 -38.81691315 155.66615295 -39.65032959 155.32556152 C-42.73689095 153.58428455 -45.08719331 151.25659798 -47.59472656 148.79101562 C-48.14151062 148.26058655 -48.68829468 147.73015747 -49.25164795 147.18365479 C-51.05412579 145.43069418 -52.84835098 143.66963942 -54.640625 141.90625 C-55.5618578 141.00098824 -55.5618578 141.00098824 -56.50170135 140.07743835 C-59.75014684 136.88236957 -62.99125553 133.68004036 -66.22753906 130.47265625 C-68.9026914 127.82419359 -71.5915987 125.19101722 -74.29394531 122.5703125 C-77.56290219 119.40010077 -80.80651345 116.20593287 -84.03356171 112.99308777 C-85.26428656 111.77576691 -86.50348986 110.56695426 -87.75128937 109.36714172 C-98.69465728 98.82110247 -98.69465728 98.82110247 -99.34033203 92.82666016 C-98.40372035 86.19559002 -93.29664377 82.02496327 -88.6640625 77.6171875 C-87.70274785 76.66946931 -86.74349766 75.7196529 -85.78622437 74.76785278 C-83.78479346 72.78768635 -81.76855531 70.82460071 -79.73828125 68.87402344 C-77.13254701 66.37057513 -74.55368418 63.8415521 -71.98377419 61.30138969 C-67.73770095 57.10640304 -63.47439183 52.92815589 -59.17431641 48.78857422 C-58.41486725 48.05484589 -57.65541809 47.32111755 -56.87295532 46.56515503 C-55 45 -55 45 -53 45 C-52.7834375 44.45859375 -52.566875 43.9171875 -52.34375 43.359375 C-50.53500003 40.18354656 -48.08276201 37.79271919 -45.5 35.25 C-45.00113281 34.74339844 -44.50226562 34.23679688 -43.98828125 33.71484375 C-40.25341139 30 -40.25341139 30 -38 30 C-37.73574219 29.4112207 -37.47148438 28.82244141 -37.19921875 28.21582031 C-35.95631056 25.91927416 -34.64993519 24.39166834 -32.8125 22.546875 C-32.19632812 21.928125 -31.58015625 21.309375 -30.9453125 20.671875 C-30.30335937 20.03765625 -29.66140625 19.4034375 -29 18.75 C-28.35804687 18.1003125 -27.71609375 17.450625 -27.0546875 16.78125 C-26.43851562 16.16765625 -25.82234375 15.5540625 -25.1875 14.921875 C-24.62417969 14.36081055 -24.06085938 13.79974609 -23.48046875 13.22167969 C-22 12 -22 12 -20 12 C-19.7421875 11.42765625 -19.484375 10.8553125 -19.21875 10.265625 C-17.87652665 7.77046621 -16.39986469 5.85230929 -14.5 3.75 C-13.8915625 3.04359375 -13.283125 2.3371875 -12.65625 1.609375 C-8.51506086 -0.89969842 -4.7125164 -0.94110079 0 0 Z " fill="#F38F0B" transform="translate(101,3)"/>
</svg>
