<?xml version="1.0" encoding="UTF-8"?>
<svg width="574px" height="120px" viewBox="0 0 574 120" version="1.1" xmlns="http://www.w3.org/2000/svg" xmlns:xlink="http://www.w3.org/1999/xlink">
    <!-- Generator: Sketch 48.2 (47327) - http://www.bohemiancoding.com/sketch -->
    <title>Asset 1</title>
    <desc>Created with Sketch.</desc>
    <defs>
        <linearGradient x1="50%" y1="0%" x2="50%" y2="100%" id="linearGradient-1">
            <stop stop-color="#FF9966" offset="0%"></stop>
            <stop stop-color="#FF5E62" offset="100%"></stop>
        </linearGradient>
    </defs>
    <g id="Page-1" stroke="none" stroke-width="1" fill="none" fill-rule="evenodd">
        <g id="Asset-1" fill-rule="nonzero">
            <path d="M176.14,64 L176.14,94.52 L161.84,94.52 L161.84,64 C161.84,56 157.23,53.55 151.78,53.55 C147.92,53.55 141.62,55.91 141.9,67.2 L141.9,94.52 L127.9,94.52 L127.9,23.31 L141.9,23.31 L141.9,47.39 C145.676518,43.911528 150.596539,41.9371162 155.73,41.84 C170.69,41.84 176.14,50.49 176.14,64 Z" id="Shape" fill="#FFFFFF"></path>
            <path d="M225.35,89.35 C223.18,92.26 216.97,95.65 209.64,95.65 C193.27,95.65 183.64,83.51 183.64,68.65 C183.64,53.79 193.24,41.65 209.64,41.65 C217.16,41.65 222.71,44.65 225.35,48.14 L225.35,42.78 L239.27,42.78 L239.27,94.52 L225.35,94.52 L225.35,89.35 Z M211.71,54 C202.77,54 197.5,60.2 197.5,68.67 C197.5,76.86 203.05,83.25 211.71,83.25 C220.37,83.25 225.91,77.7 225.91,68.67 C225.91,60.09 220.45,54 211.71,54 Z" id="Shape" fill="#FFFFFF"></path>
            <path d="M266.83,76.08 C266.83,78.9 266.93,83.8 273.23,83.8 C274.425932,83.8030329 275.621108,83.7396018 276.81,83.61 L276.81,95.46 C275.11,95.65 272.48,95.84 270.5,95.84 C259.59,95.84 252.91,93.84 252.91,82.95 L252.91,54.26 L246.61,54.26 L246.61,41.93 L252.91,41.93 L252.91,28.11 L266.83,28.11 L266.83,41.93 L277.18,41.93 L277.18,54.26 L266.83,54.26 L266.83,76.08 Z" id="Shape" fill="#FFFFFF"></path>
            <path d="M281.79,68.84 C281.79,53.98 294.49,41.93 309.92,41.93 C320.562977,41.7166001 330.406377,47.5567589 335.32,57 L322.62,62 C319.52,56.83 315,54.29 309.92,54.29 C301.74,54.29 295.81,60.49 295.81,68.87 C295.81,77.25 301.81,83.45 310.01,83.45 C315.425237,83.5450641 320.452898,80.6506999 323.09,75.92 L335.09,80.63 C330.09,90.79 321.92,95.87 310.09,95.87 C294.59,95.84 281.79,83.7 281.79,68.84 Z" id="Shape" fill="#FFFFFF"></path>
            <path d="M390,64 L390,94.52 L375.7,94.52 L375.7,64 C375.7,56 371.09,53.55 365.64,53.55 C361.78,53.55 355.47,55.91 355.76,67.2 L355.76,94.52 L341.76,94.52 L341.76,23.31 L355.76,23.31 L355.76,47.39 C359.536518,43.911528 364.456539,41.9371162 369.59,41.84 C384.52,41.84 390,50.49 390,64 Z" id="Shape" fill="#FFFFFF"></path>
            <path d="M400,94.52 L400,23.4 L413.93,23.4 L413.93,48.14 C416.56,44.66 422.11,41.65 429.63,41.65 C446,41.65 455.63,53.79 455.63,68.65 C455.63,83.51 446.03,95.65 429.63,95.65 C422.3,95.65 416.09,92.26 413.93,89.35 L413.93,94.52 L400,94.52 Z M427.57,83.23 C436.22,83.23 441.77,76.84 441.77,68.65 C441.77,60.18 436.5,53.98 427.57,53.98 C418.82,53.98 413.36,60.09 413.36,68.65 C413.31,77.68 418.77,83.23 427.52,83.23 L427.57,83.23 Z" id="Shape" fill="#FFFFFF"></path>
            <path d="M460.82,68.74 C460.82,53.98 473.43,41.84 488.82,41.84 C504.21,41.84 517.08,54 517.08,68.74 C517.08,83.74 504.28,95.74 488.85,95.74 C473.42,95.74 460.82,83.7 460.82,68.74 Z M474.65,68.74 C474.65,77.3 480.76,83.51 488.85,83.51 C496.94,83.51 503.06,77.12 503.06,68.74 C503.06,60.36 496.85,54.16 488.85,54.16 C485.024045,54.1805887 481.366372,55.7356201 478.696928,58.4765001 C476.027483,61.2173802 474.569566,64.9148352 474.65,68.74 Z" id="Shape" fill="#FFFFFF"></path>
            <polygon id="Shape" fill="#FFFFFF" points="545.3 79.19 534.48 94.52 516.89 94.52 536.36 68.93 516.61 43 534.11 43 545.3 58.9 556.3 43 574 43 554 69 573.56 94.59 555.83 94.59"></polygon>
            <path d="M91.62,0 C86,0 81.43,5.18 81.43,11.51 L81.43,53.64 C81.43,59.98 76.85,65.15 71.26,65.15 C65.67,65.15 61.08,60 61.08,53.64 L61.08,34.17 C61.08,27.84 56.5,22.66 50.9,22.66 C45.3,22.66 40.72,27.84 40.72,34.17 L40.72,37.53 C40.72,43.86 36.14,49 30.54,49 C24.94,49 20.36,43.86 20.36,37.53 L20.36,30.89 C20.36,24.56 15.78,19.38 10.18,19.38 C4.58,19.38 0,24.56 0,30.89 L0,78.69 C0,85 4.58,90.2 10.18,90.2 C15.78,90.2 20.36,85 20.36,78.69 L20.36,72.05 C20.36,65.72 24.94,60.55 30.54,60.55 C36.14,60.55 40.72,65.72 40.72,72.05 L40.72,107.64 C40.72,113.97 45.3,119.14 50.9,119.14 C56.5,119.14 61.08,113.97 61.08,107.64 L61.08,88.17 C61.08,81.84 65.66,76.66 71.26,76.66 C76.86,76.66 81.43,81.84 81.43,88.17 L81.43,102.68 C81.43,109.01 86.02,114.19 91.62,114.19 C97.22,114.19 101.8,109 101.8,102.68 L101.8,11.51 C101.8,5.18 97.22,0 91.62,0 Z" id="Shape" fill="url(#linearGradient-1)"></path>
        </g>
    </g>
</svg>