<svg class="h-auto w-52 text-brand transition group-hover:-rotate-6 group-hover:scale-95 group-active:scale-90 -rotate-3" viewBox="0 0 282 81" fill="none" xmlns="http://www.w3.org/2000/svg">
      <path d="M42.24 80.64C39.488 80.64 36.544 80.256 33.408 79.488C30.272 78.784 27.2 77.792 24.192 76.512C21.248 75.168 18.592 73.664 16.224 72C13.92 70.336 12.192 68.544 11.04 66.624C10.528 66.624 9.952 66.656 9.312 66.72C8.672 66.784 8 66.816 7.296 66.816C6.528 66.816 5.568 66.688 4.416 66.432C3.264 66.176 2.24 65.728 1.344 65.088C0.448 64.448 0 63.584 0 62.496C0 61.984 0.352 61.536 1.056 61.152C1.824 60.768 3.232 60.576 5.28 60.576C9.248 60.576 12 61.792 13.536 64.224C15.648 64.48 17.888 64.672 20.256 64.8C22.624 64.928 25.056 64.992 27.552 64.992C30.112 64.992 32.672 64.928 35.232 64.8C37.856 64.672 40.448 64.448 43.008 64.128C41.6 61.888 40 59.648 38.208 57.408C36.48 55.168 35.104 53.344 34.08 51.936C31.712 48.736 29.376 45.44 27.072 42.048C24.768 38.592 22.56 34.688 20.448 30.336C19.616 28.672 19.2 26.976 19.2 25.248C19.2 22.688 20 20.288 21.6 18.048C23.2 15.744 25.216 13.632 27.648 11.712C30.08 9.792 32.64 8.128 35.328 6.72C38.08 5.248 40.544 4.032 42.72 3.072C45.024 2.112 47.36 1.376 49.728 0.864C52.096 0.288 54.368 0 56.544 0C57.824 0 59.04 0.0960007 60.192 0.288002C61.792 0.544003 63.328 1.408 64.8 2.88C66.336 4.288 67.616 5.984 68.64 7.968C69.664 9.888 70.176 11.808 70.176 13.728C70.176 15.52 69.728 17.6 68.832 19.968C68 22.272 66.912 24.64 65.568 27.072C64.224 29.44 62.784 31.68 61.248 33.792C59.712 35.84 58.272 37.504 56.928 38.784C55.648 40.064 54.624 40.704 53.856 40.704C52.768 40.704 51.776 40.128 50.88 38.976C50.048 37.824 49.632 36.928 49.632 36.288C49.632 35.904 49.728 35.68 49.92 35.616C51.648 34.336 53.472 32.608 55.392 30.432C57.312 28.256 59.072 25.92 60.672 23.424C62.336 20.864 63.68 18.368 64.704 15.936C65.792 13.44 66.336 11.296 66.336 9.504C66.336 7.456 65.568 6.08 64.032 5.376C62.56 4.608 60.704 4.224 58.464 4.224C56.352 4.224 54.112 4.576 51.744 5.28C49.376 5.92 47.296 6.688 45.504 7.584C39.68 10.464 35.2 13.248 32.064 15.936C28.928 18.56 26.752 21.024 25.536 23.328C24.384 25.632 23.808 27.744 23.808 29.664C23.808 31.648 24.768 34.304 26.688 37.632C28.608 40.896 31.872 45.312 36.48 50.88C38.208 52.992 40.064 55.136 42.048 57.312C44.096 59.424 45.952 61.472 47.616 63.456C50.624 62.944 53.408 62.304 55.968 61.536C58.592 60.768 60.896 59.872 62.88 58.848C62.944 58.784 63.04 58.752 63.168 58.752C63.36 58.752 63.456 58.848 63.456 59.04C63.456 59.552 63.232 59.936 62.784 60.192C61.376 61.216 59.488 62.144 57.12 62.976C54.752 63.808 52.064 64.544 49.056 65.184C50.336 66.72 51.36 68.192 52.128 69.6C52.896 70.944 53.28 72.16 53.28 73.248C53.28 75.872 52.224 77.76 50.112 78.912C48.064 80.064 45.44 80.64 42.24 80.64ZM37.536 77.28C40.032 77.28 42.08 76.832 43.68 75.936C45.344 75.04 46.176 73.664 46.176 71.808C46.176 71.04 45.984 70.176 45.6 69.216C45.216 68.192 44.704 67.136 44.064 66.048C38.112 66.944 31.968 67.392 25.632 67.392C21.92 67.392 18.368 67.2 14.976 66.816C16.512 68.864 18.528 70.688 21.024 72.288C23.584 73.888 26.304 75.136 29.184 76.032C32.128 76.864 34.912 77.28 37.536 77.28Z" fill="currentColor"></path>
      <path d="M76.4378 78.912C72.7258 78.912 69.8138 77.92 67.7018 75.936C65.6538 73.952 64.6298 71.52 64.6298 68.64C64.6298 65.568 65.2698 62.496 66.5498 59.424C67.8298 56.288 69.5577 53.312 71.7337 50.496C73.9097 47.68 76.3737 45.184 79.1257 43.008C81.8777 40.832 84.7898 39.104 87.8618 37.824C90.9338 36.544 93.9417 35.904 96.8857 35.904C98.6777 35.904 100.15 36.224 101.302 36.864C102.454 37.504 103.03 38.144 103.03 38.784C103.03 38.976 102.966 39.136 102.838 39.264C102.582 39.52 102.198 40.192 101.686 41.28C101.238 42.304 100.758 43.488 100.246 44.832C99.7977 46.176 99.3817 47.552 98.9977 48.96C98.6777 50.304 98.5178 51.456 98.5178 52.416C98.3898 53.12 98.0697 53.472 97.5577 53.472C97.1097 53.472 96.5658 52.96 95.9258 51.936C95.3498 50.848 95.0618 49.408 95.0618 47.616C95.0618 46.464 95.2857 45.248 95.7337 43.968C96.2458 42.688 96.7258 41.536 97.1738 40.512C97.6858 39.424 97.9417 38.656 97.9417 38.208C97.9417 37.952 97.8137 37.824 97.5577 37.824C97.3657 37.824 97.1737 37.824 96.9818 37.824C95.6378 37.824 93.7498 38.432 91.3177 39.648C88.8857 40.8 86.0378 42.944 82.7738 46.08C80.5978 48.192 78.5818 50.656 76.7258 53.472C74.8698 56.288 73.3658 59.136 72.2138 62.016C71.1258 64.896 70.5817 67.552 70.5817 69.984C70.5817 72.8 71.2857 74.624 72.6937 75.456C74.1657 76.288 75.8298 76.704 77.6858 76.704C80.8858 76.704 84.0858 76.096 87.2858 74.88C90.5498 73.664 93.5898 72 96.4058 69.888C99.2858 67.776 101.686 65.376 103.606 62.688C103.67 62.56 103.734 62.496 103.798 62.496C103.862 62.432 103.894 62.4 103.894 62.4C104.022 62.4 104.086 62.528 104.086 62.784C104.086 63.104 103.99 63.552 103.798 64.128C103.67 64.704 103.478 65.152 103.222 65.472C101.942 67.456 100.118 69.504 97.7497 71.616C95.3817 73.664 92.4377 75.392 88.9177 76.8C85.3977 78.208 81.2378 78.912 76.4378 78.912Z" fill="currentColor"></path>
      <path d="M124.147 71.904C121.779 71.904 120.179 70.592 119.347 67.968C118.515 65.28 118.099 61.984 118.099 58.08C118.099 55.968 118.163 53.92 118.291 51.936C118.419 49.888 118.515 48.192 118.579 46.848C117.555 46.72 116.563 46.528 115.603 46.272C114.707 45.952 114.003 45.632 113.491 45.312C113.427 45.76 113.171 46.688 112.723 48.096C112.275 49.44 111.731 51.008 111.091 52.8C110.515 54.592 109.875 56.352 109.171 58.08C108.467 59.808 107.795 61.248 107.155 62.4C106.515 63.488 105.939 64.032 105.427 64.032C105.171 64.032 105.043 63.84 105.043 63.456C105.043 62.944 105.267 62.24 105.715 61.344C106.995 58.72 108.147 56.032 109.171 53.28C110.195 50.528 111.123 47.68 111.955 44.736C111.315 44.48 110.835 44.032 110.515 43.392C110.259 42.688 110.131 41.92 110.131 41.088C110.131 38.784 110.451 36.896 111.091 35.424C111.795 33.952 112.563 32.864 113.395 32.16C114.227 31.392 114.867 31.008 115.315 31.008C116.083 31.008 116.467 31.648 116.467 32.928C116.467 33.568 116.307 34.56 115.987 35.904C115.667 37.184 115.283 38.528 114.835 39.936C114.387 41.28 114.003 42.368 113.683 43.2C113.683 43.2 113.875 43.328 114.259 43.584C114.643 43.84 115.059 43.968 115.507 43.968C116.147 43.968 116.755 43.584 117.331 42.816C117.971 41.984 118.707 41.184 119.539 40.416C120.435 39.584 121.555 39.168 122.899 39.168C123.603 39.168 124.211 39.264 124.723 39.456C125.235 39.584 125.491 39.84 125.491 40.224V40.512C124.851 42.112 124.371 44.224 124.051 46.848C123.731 49.408 123.571 52 123.571 54.624C123.571 56.928 123.699 59.104 123.955 61.152C124.211 63.136 124.595 64.736 125.107 65.952C125.683 67.168 126.355 67.776 127.123 67.776C127.891 67.776 128.627 67.36 129.331 66.528C130.035 65.696 130.643 64.8 131.155 63.84C131.731 62.88 132.115 62.176 132.307 61.728C133.651 59.232 134.483 57.632 134.803 56.928C135.123 56.16 135.539 55.776 136.051 55.776C136.243 55.776 136.339 55.904 136.339 56.16C136.339 56.288 136.275 56.608 136.147 57.12C135.379 59.232 134.419 61.44 133.267 63.744C132.179 65.984 130.867 67.904 129.331 69.504C127.795 71.104 126.067 71.904 124.147 71.904Z" fill="currentColor"></path>
      <path d="M141.547 45.6C141.163 45.6 140.747 45.536 140.299 45.408C139.915 45.216 139.531 45.024 139.147 44.832C138.891 44.64 138.763 44.384 138.763 44.064C138.763 43.488 139.115 42.784 139.819 41.952C140.523 41.056 141.419 40.288 142.507 39.648C143.595 39.008 144.651 38.688 145.675 38.688C146.251 38.688 146.539 38.848 146.539 39.168C146.539 39.424 146.251 39.744 145.675 40.128C144.971 40.64 144.459 41.344 144.139 42.24C143.819 43.136 143.499 43.936 143.179 44.64C142.859 45.28 142.315 45.6 141.547 45.6ZM136.363 74.592C135.147 74.592 134.315 74.208 133.867 73.44C133.419 72.672 133.195 71.488 133.195 69.888C133.195 69.056 133.227 68.16 133.291 67.2C133.355 66.24 133.483 65.152 133.675 63.936C134.251 59.584 134.891 56.128 135.595 53.568C136.299 50.944 137.195 49.632 138.283 49.632C139.179 49.632 139.979 50.144 140.683 51.168C141.387 52.192 141.867 52.928 142.123 53.376C141.675 54.208 141.067 55.552 140.299 57.408C139.595 59.264 138.955 61.216 138.379 63.264C137.803 65.312 137.515 67.104 137.515 68.64C137.515 70.176 137.867 70.944 138.571 70.944C139.147 70.944 139.787 70.624 140.491 69.984C141.259 69.344 141.963 68.64 142.603 67.872C143.307 67.104 143.755 66.56 143.947 66.24C146.123 62.976 147.499 60.48 148.075 58.752C148.715 57.024 149.323 56.16 149.899 56.16C150.155 56.16 150.283 56.352 150.283 56.736C150.283 56.992 150.219 57.28 150.091 57.6C150.027 57.856 149.931 58.208 149.803 58.656C149.419 59.68 148.811 61.088 147.979 62.88C147.147 64.608 146.123 66.368 144.907 68.16C143.755 69.952 142.443 71.488 140.971 72.768C139.563 73.984 138.027 74.592 136.363 74.592Z" fill="currentColor"></path>
      <path d="M152.247 71.904C151.223 71.776 150.135 71.328 148.983 70.56C147.831 69.728 147.255 68.8 147.255 67.776C147.255 67.52 147.287 67.296 147.351 67.104C148.247 63.904 148.951 60.16 149.463 55.872C149.975 51.584 150.359 47.072 150.615 42.336C150.935 37.6 151.223 32.992 151.479 28.512C151.735 24.032 152.055 19.968 152.439 16.32C152.887 12.672 153.495 9.824 154.263 7.776C154.391 6.624 154.839 6.048 155.607 6.048C156.503 6.048 157.559 6.72 158.775 8.064C159.991 9.408 160.663 11.008 160.791 12.864C160.407 15.36 159.895 18.4 159.255 21.984C158.615 25.504 157.911 29.248 157.143 33.216C156.439 37.12 155.735 40.992 155.031 44.832C154.327 48.672 153.687 52.192 153.111 55.392C152.535 58.528 152.087 61.024 151.767 62.88C152.407 61.728 153.303 60.288 154.455 58.56C155.607 56.768 156.919 54.912 158.391 52.992C159.863 51.072 161.399 49.28 162.999 47.616C164.599 45.888 166.167 44.512 167.703 43.488C169.239 42.4 170.615 41.856 171.831 41.856C173.303 41.856 174.455 42.432 175.287 43.584C176.183 44.672 176.631 45.952 176.631 47.424C176.631 48.704 176.183 50.336 175.287 52.32C174.391 54.24 173.143 56.288 171.543 58.464C170.007 60.576 168.183 62.624 166.071 64.608C164.023 66.528 161.815 68.16 159.447 69.504C157.079 70.848 154.679 71.648 152.247 71.904ZM150.999 68.544C153.047 68.16 155.255 67.264 157.623 65.856C159.991 64.448 162.199 62.72 164.247 60.672C166.359 58.624 168.055 56.384 169.335 53.952C170.679 51.52 171.351 49.12 171.351 46.752C171.351 45.792 170.967 45.312 170.199 45.312C169.303 45.312 168.151 45.952 166.743 47.232C165.335 48.448 163.799 50.048 162.135 52.032C160.535 53.952 158.967 56 157.431 58.176C155.895 60.288 154.551 62.304 153.399 64.224C152.247 66.08 151.447 67.52 150.999 68.544Z" fill="currentColor"></path>
      <path d="M184.497 71.904C183.473 71.776 182.385 71.328 181.233 70.56C180.081 69.728 179.505 68.8 179.505 67.776C179.505 67.52 179.537 67.296 179.601 67.104C180.497 63.904 181.201 60.16 181.713 55.872C182.225 51.584 182.609 47.072 182.865 42.336C183.185 37.6 183.473 32.992 183.729 28.512C183.985 24.032 184.305 19.968 184.689 16.32C185.137 12.672 185.745 9.824 186.513 7.776C186.641 6.624 187.089 6.048 187.857 6.048C188.753 6.048 189.809 6.72 191.025 8.064C192.241 9.408 192.913 11.008 193.041 12.864C192.657 15.36 192.145 18.4 191.505 21.984C190.865 25.504 190.161 29.248 189.393 33.216C188.689 37.12 187.985 40.992 187.281 44.832C186.577 48.672 185.937 52.192 185.361 55.392C184.785 58.528 184.337 61.024 184.017 62.88C184.657 61.728 185.553 60.288 186.705 58.56C187.857 56.768 189.169 54.912 190.641 52.992C192.113 51.072 193.649 49.28 195.249 47.616C196.849 45.888 198.417 44.512 199.953 43.488C201.489 42.4 202.865 41.856 204.081 41.856C205.553 41.856 206.705 42.432 207.537 43.584C208.433 44.672 208.881 45.952 208.881 47.424C208.881 48.704 208.433 50.336 207.537 52.32C206.641 54.24 205.393 56.288 203.793 58.464C202.257 60.576 200.433 62.624 198.321 64.608C196.273 66.528 194.065 68.16 191.697 69.504C189.329 70.848 186.929 71.648 184.497 71.904ZM183.249 68.544C185.297 68.16 187.505 67.264 189.873 65.856C192.241 64.448 194.449 62.72 196.497 60.672C198.609 58.624 200.305 56.384 201.585 53.952C202.929 51.52 203.601 49.12 203.601 46.752C203.601 45.792 203.217 45.312 202.449 45.312C201.553 45.312 200.401 45.952 198.993 47.232C197.585 48.448 196.049 50.048 194.385 52.032C192.785 53.952 191.217 56 189.681 58.176C188.145 60.288 186.801 62.304 185.649 64.224C184.497 66.08 183.697 67.52 183.249 68.544Z" fill="currentColor"></path>
      <path d="M225.675 80.544C224.779 80.544 223.947 80.416 223.179 80.16C220.747 79.456 218.795 78.08 217.323 76.032C215.915 73.984 214.891 71.488 214.251 68.544C213.675 65.6 213.387 62.496 213.387 59.232C213.387 57.44 213.451 55.648 213.579 53.856C213.707 52.064 213.899 50.304 214.155 48.576C214.667 44.928 215.403 40.896 216.363 36.48C217.387 32.064 218.539 27.584 219.819 23.04C221.099 18.496 222.411 14.208 223.755 10.176C224.267 8.96 224.715 7.968 225.099 7.2C225.483 6.432 226.091 6.176 226.923 6.432C227.563 6.624 228.203 6.944 228.843 7.392C229.547 7.776 230.091 8.224 230.475 8.736C232.203 10.72 233.067 13.504 233.067 17.088C233.067 20.352 232.427 24.032 231.147 28.128C229.867 32.16 228.171 36.192 226.059 40.224C224.011 44.256 221.707 47.968 219.147 51.36C218.571 55.072 218.283 58.592 218.283 61.92C218.283 64.544 218.475 66.976 218.859 69.216C219.307 71.456 219.979 73.408 220.875 75.072C221.643 76.48 222.475 77.44 223.371 77.952C224.331 78.464 225.227 78.72 226.059 78.72C226.955 78.72 227.755 78.56 228.459 78.24C229.227 77.92 229.835 77.664 230.283 77.472C230.795 77.152 231.243 76.992 231.627 76.992C232.139 76.992 232.203 77.248 231.819 77.76C231.563 78.08 230.891 78.624 229.803 79.392C228.715 80.16 227.339 80.544 225.675 80.544ZM219.819 47.232C221.867 44.032 223.723 40.672 225.387 37.152C227.115 33.568 228.491 30.08 229.515 26.688C230.603 23.232 231.147 20.16 231.147 17.472C231.147 16.448 231.051 15.488 230.859 14.592C230.731 13.696 230.475 12.896 230.091 12.192C227.915 17.632 225.899 23.424 224.043 29.568C222.251 35.648 220.843 41.536 219.819 47.232Z" fill="currentColor"></path>
      <path d="M238.9 75.456C236.724 75.456 235.028 74.752 233.812 73.344C232.66 71.936 231.86 70.144 231.412 67.968C231.028 65.728 230.836 63.488 230.836 61.248C230.836 59.712 230.9 58.272 231.028 56.928C231.156 55.52 231.284 54.304 231.412 53.28C231.732 50.656 232.148 48.128 232.66 45.696C233.172 43.264 233.652 41.184 234.1 39.456C234.612 37.728 234.932 36.608 235.06 36.096C235.316 35.2 235.796 34.752 236.5 34.752C237.204 34.752 238.004 35.232 238.9 36.192C239.796 37.088 240.436 37.824 240.82 38.4C242.292 38.848 243.732 39.392 245.14 40.032C246.548 40.608 247.7 41.248 248.596 41.952C249.556 42.656 250.036 43.424 250.036 44.256C250.036 45.856 249.364 47.456 248.02 49.056C246.676 50.656 244.98 52.128 242.932 53.472C240.884 54.816 238.804 55.968 236.692 56.928C236.5 58.464 236.404 60 236.404 61.536C236.404 64.096 236.724 66.336 237.364 68.256C238.004 70.176 239.092 71.136 240.628 71.136C241.972 71.136 243.252 70.656 244.468 69.696C245.748 68.736 246.932 67.52 248.02 66.048C249.108 64.576 250.068 63.104 250.9 61.632C251.796 60.096 252.468 58.816 252.916 57.792C253.044 57.408 253.332 57.216 253.78 57.216C254.036 57.216 254.164 57.504 254.164 58.08C254.164 58.592 253.78 59.68 253.012 61.344C252.244 62.88 251.444 64.352 250.612 65.76C249.844 67.104 249.076 68.288 248.308 69.312C247.22 70.72 245.876 72.096 244.276 73.44C242.74 74.784 240.948 75.456 238.9 75.456ZM236.98 54.24C239.22 53.024 241.204 51.584 242.932 49.92C244.724 48.192 245.62 46.336 245.62 44.352C245.62 43.648 245.076 42.944 243.988 42.24C242.964 41.472 241.748 40.832 240.34 40.32C239.572 42.368 238.9 44.544 238.324 46.848C237.812 49.152 237.364 51.616 236.98 54.24Z" fill="currentColor"></path>
      <path d="M260.279 72.384C259.319 72.384 258.23 72.256 257.014 72C255.862 71.68 254.839 71.296 253.943 70.848C253.111 70.336 252.695 69.856 252.695 69.408C252.695 68.384 253.654 67.872 255.574 67.872C256.662 67.872 257.942 67.648 259.414 67.2C260.886 66.752 262.231 66.272 263.447 65.76C264.727 65.184 265.559 64.768 265.943 64.512C265.687 64.128 265.078 63.552 264.118 62.784C263.158 61.952 262.102 60.96 260.951 59.808C259.799 58.656 258.775 57.376 257.879 55.968C257.047 54.496 256.63 52.896 256.63 51.168C256.63 49.376 257.11 47.712 258.07 46.176C259.03 44.576 260.214 43.136 261.622 41.856C263.094 40.512 264.567 39.36 266.039 38.4C267.575 37.376 268.886 36.544 269.974 35.904C270.422 35.648 270.902 35.52 271.414 35.52C272.438 35.52 273.398 35.872 274.294 36.576C275.254 37.28 275.734 37.952 275.734 38.592C275.734 38.656 275.671 38.816 275.543 39.072C275.031 39.648 274.455 40.544 273.815 41.76C273.239 42.976 272.727 44.256 272.279 45.6C271.831 46.88 271.607 48.064 271.607 49.152C271.607 50.368 271.351 50.976 270.839 50.976C270.583 50.976 270.391 50.72 270.263 50.208C270.135 49.696 270.07 49.216 270.07 48.768C270.07 47.488 270.263 46.112 270.647 44.64C271.095 43.168 271.382 42.112 271.51 41.472C270.742 41.472 269.686 41.984 268.342 43.008C267.062 43.968 265.75 45.184 264.406 46.656C263.062 48.064 261.911 49.504 260.951 50.976C260.055 52.384 259.607 53.536 259.607 54.432C259.607 55.648 260.022 56.768 260.854 57.792C261.686 58.752 262.711 59.648 263.927 60.48C265.207 61.312 266.391 62.208 267.479 63.168C268.119 62.912 269.11 62.464 270.454 61.824C271.798 61.12 273.206 60.416 274.678 59.712C276.214 58.944 277.559 58.304 278.711 57.792C279.927 57.28 280.727 57.024 281.111 57.024C281.239 57.024 281.302 57.056 281.302 57.12C281.302 57.568 280.822 58.144 279.862 58.848C278.902 59.552 277.719 60.288 276.311 61.056C274.903 61.824 273.494 62.56 272.086 63.264C270.742 63.968 269.686 64.512 268.918 64.896C269.11 65.472 269.207 66.048 269.207 66.624C269.207 67.968 268.727 69.056 267.767 69.888C266.871 70.72 265.718 71.36 264.31 71.808C262.966 72.192 261.623 72.384 260.279 72.384Z" fill="currentColor"></path>
    </svg>
